<?xml version="1.0" standalone="no"?>
<!DOCTYPE svg PUBLIC "-//W3C//DTD SVG 20010904//EN"
 "http://www.w3.org/TR/2001/REC-SVG-20010904/DTD/svg10.dtd">
<svg version="1.0" xmlns="http://www.w3.org/2000/svg"
 width="3165.000000pt" height="417.000000pt" viewBox="0 0 3165.000000 417.000000"
 preserveAspectRatio="xMidYMid meet">

<g transform="translate(0.000000,417.000000) scale(0.100000,-0.100000)"
fill="#000000" stroke="none">
<path d="M16497 4022 c-10 -10 -17 -28 -17 -39 0 -14 -13 -30 -36 -43 -37 -23
-71 -66 -61 -77 4 -3 14 0 23 8 14 12 19 10 35 -10 23 -28 24 -69 4 -118 -20
-47 -18 -53 5 -25 11 13 25 42 30 64 10 33 8 46 -8 78 -19 39 -14 60 14 60 7
0 14 6 17 13 3 9 7 9 18 0 11 -9 20 -8 39 2 13 7 30 11 37 8 8 -3 13 3 13 16
0 12 5 21 10 21 16 0 11 26 -8 43 -26 23 -94 22 -115 -1z"/>
<path d="M15970 3943 c-52 -31 -160 -94 -240 -140 -80 -47 -152 -91 -160 -98
-13 -12 -15 -80 -12 -514 l2 -501 38 -25 c20 -14 40 -25 44 -25 5 0 8 223 8
495 0 320 3 495 10 495 6 0 11 -176 12 -495 l3 -494 74 43 74 43 42 -28 c56
-38 91 -50 121 -43 22 6 24 4 24 -35 0 -32 -4 -41 -17 -43 -40 -3 -66 4 -113
32 -67 39 -64 21 2 -21 35 -21 65 -32 91 -32 38 0 38 0 35 -36 -3 -33 -6 -36
-37 -39 -24 -3 -47 5 -83 27 -27 17 -51 31 -54 31 -2 0 -4 -20 -4 -44 0 -42 2
-46 50 -75 53 -33 116 -41 138 -19 9 9 12 4 12 -25 0 -34 4 -39 53 -67 88 -50
64 -60 502 195 117 67 136 80 131 86 -2 2 -21 75 -41 162 -36 156 -40 214 -10
174 7 -11 16 -35 20 -56 11 -65 16 -67 79 -30 31 19 54 38 52 44 -14 37 -27
128 -19 136 17 17 28 -12 57 -136 43 -189 45 -195 61 -189 13 5 15 75 15 505
0 356 -3 499 -11 499 -6 0 -55 -25 -109 -55 l-97 -55 5 -49 c2 -29 -1 -57 -9
-72 -7 -13 -20 -51 -29 -84 -23 -82 -43 -80 -53 7 -6 50 -5 75 7 102 19 45 7
52 -38 25 l-36 -21 19 -27 c11 -16 22 -54 26 -96 4 -39 12 -81 17 -94 10 -28
-14 -63 -31 -46 -24 25 -71 130 -71 160 0 38 -21 59 -50 50 -15 -5 -20 -15
-20 -41 0 -37 -13 -43 -41 -19 -15 15 -25 11 -113 -40 -107 -61 -135 -66 -198
-34 -50 25 -59 16 120 119 124 71 131 77 132 107 0 43 -9 66 -24 54 -6 -5 -83
-50 -171 -101 -100 -58 -170 -92 -188 -92 -27 1 -97 37 -97 50 0 4 51 37 113
73 61 36 169 99 239 140 85 49 127 80 128 92 0 24 -6 22 -84 -23 -37 -22 -70
-40 -72 -40 -2 0 -4 54 -4 120 0 66 -4 120 -9 120 -5 0 -123 -66 -262 -146
-264 -152 -271 -155 -319 -116 -22 18 -22 18 131 109 245 144 321 186 335 186
8 0 14 9 14 19 0 10 -3 18 -7 18 -5 0 -51 -26 -103 -57z m-366 -319 c14 -5 16
-27 16 -140 0 -74 -2 -134 -4 -134 -2 0 -11 3 -20 6 -14 5 -16 27 -16 140 0
74 2 134 4 134 2 0 11 -3 20 -6z m316 -517 c0 -196 -2 -218 -16 -213 -9 3 -18
6 -20 6 -2 0 -4 101 -4 225 0 223 0 225 20 213 19 -12 20 -24 20 -231z m198
-106 c2 -201 1 -223 -14 -217 -8 3 -18 6 -20 6 -2 0 -4 99 -4 221 0 205 1 220
18 217 15 -3 17 -23 20 -227z m60 -457 c32 5 32 4 32 -35 0 -30 -4 -39 -17
-41 -42 -3 -71 5 -115 34 -44 27 -48 34 -48 68 l0 39 58 -35 c44 -27 64 -34
90 -30z m-48 -91 c18 -9 41 -12 56 -9 24 6 25 5 22 -31 -3 -36 -5 -38 -38 -41
-24 -2 -51 7 -87 28 -50 29 -53 33 -53 71 l0 41 35 -22 c19 -12 48 -28 65 -37z"/>
<path d="M16570 3841 c0 -11 5 -23 10 -26 6 -4 10 5 10 19 0 14 -4 26 -10 26
-5 0 -10 -9 -10 -19z"/>
<path d="M16664 3785 c-42 -25 -42 -25 -32 -65 l10 -39 47 26 c25 15 51 31 58
36 7 5 17 6 23 2 6 -4 10 5 10 20 0 24 -3 26 -25 21 -18 -5 -25 -2 -25 9 0 21
-19 19 -66 -10z"/>
<path d="M16535 3692 c-32 -48 -65 -72 -100 -72 -24 0 -25 -3 -25 -59 0 -41 4
-60 14 -64 9 -4 16 3 20 18 7 27 51 54 79 48 13 -4 17 2 17 26 0 42 17 81 35
81 18 0 18 8 1 39 l-13 24 -28 -41z"/>
<path d="M21812 3422 l-233 -2 -10 -27 c-12 -33 -8 -537 4 -550 5 -4 44 -10
87 -11 l78 -4 -1 48 c0 27 6 60 13 74 8 14 13 31 12 38 -2 6 4 12 12 12 9 0
20 8 25 19 9 16 7 17 -14 13 -18 -3 -25 0 -25 12 0 14 15 16 101 16 73 0 100
-3 97 -12 -3 -7 -26 -12 -61 -12 -37 0 -54 -3 -47 -10 5 -5 34 -8 65 -7 47 2
54 0 49 -14 -5 -11 0 -18 14 -22 12 -3 21 -13 20 -22 -1 -9 0 -42 0 -73 l2
-58 100 0 100 0 0 68 c0 76 -15 101 -61 103 -24 1 -24 1 4 12 29 12 36 27 12
27 -8 0 -15 5 -15 10 0 6 7 10 15 10 10 0 15 10 15 30 l0 30 -70 0 c-40 0 -70
4 -70 10 0 6 30 10 70 10 49 0 70 4 70 13 0 8 4 7 10 -3 8 -13 10 -12 10 3 0
19 20 24 20 5 0 -10 2 -10 9 0 6 11 10 10 15 -4 6 -16 8 -16 16 -4 7 10 10 11
10 3 0 -7 9 -13 20 -13 11 0 20 -4 20 -10 0 -5 -10 -10 -21 -10 -17 0 -20 -4
-15 -22 3 -13 6 -47 6 -76 0 -40 3 -51 13 -46 9 6 9 5 1 -7 -9 -10 -9 -30 0
-76 10 -56 16 -67 68 -117 31 -31 60 -56 63 -56 3 0 5 153 5 340 l0 339 -30
16 c-25 13 -61 15 -188 13 -86 -2 -262 -4 -390 -6z m178 -47 c0 -12 -14 -15
-70 -15 -64 0 -81 6 -63 23 3 4 35 7 70 7 49 0 63 -3 63 -15z m-180 -5 c0 -6
-38 -10 -95 -10 -57 0 -95 4 -95 10 0 6 38 10 95 10 57 0 95 -4 95 -10z m430
0 c0 -6 -28 -10 -65 -10 -37 0 -65 4 -65 10 0 6 28 10 65 10 37 0 65 -4 65
-10z m-390 -75 c0 -12 -14 -15 -65 -15 -51 0 -65 3 -65 15 0 12 14 15 65 15
51 0 65 -3 65 -15z m340 -5 c0 -6 -52 -10 -135 -10 -83 0 -135 4 -135 10 0 6
52 10 135 10 83 0 135 -4 135 -10z m-380 -80 c0 -6 -38 -10 -95 -10 -57 0 -95
4 -95 10 0 6 38 10 95 10 57 0 95 -4 95 -10z m120 0 c0 -5 -18 -10 -40 -10
-22 0 -40 5 -40 10 0 6 18 10 40 10 22 0 40 -4 40 -10z m220 0 c0 -6 -28 -10
-65 -10 -37 0 -65 4 -65 10 0 6 28 10 65 10 37 0 65 -4 65 -10z m-480 -80 c0
-5 -13 -10 -30 -10 -16 0 -30 5 -30 10 0 6 14 10 30 10 17 0 30 -4 30 -10z
m300 0 c0 -6 -38 -10 -95 -10 -57 0 -95 4 -95 10 0 6 38 10 95 10 57 0 95 -4
95 -10z m-250 -80 c0 -5 -25 -10 -55 -10 -30 0 -55 5 -55 10 0 6 25 10 55 10
30 0 55 -4 55 -10z m455 -80 c4 -6 -22 -10 -69 -10 -44 0 -76 4 -76 10 0 6 30
10 69 10 39 0 73 -4 76 -10z m-455 -80 c0 -5 -22 -10 -50 -10 -27 0 -50 5 -50
10 0 6 23 10 50 10 28 0 50 -4 50 -10z m460 -5 c0 -12 -15 -15 -75 -15 -60 0
-75 3 -75 15 0 12 15 15 75 15 60 0 75 -3 75 -15z"/>
<path d="M15480 3292 c-36 -22 -153 -90 -260 -152 -200 -116 -282 -164 -335
-195 l-31 -18 19 -39 c11 -21 20 -38 22 -38 2 0 72 40 156 89 85 49 230 133
322 186 93 53 171 103 173 110 3 7 4 31 2 54 l-3 42 -65 -39z"/>
<path d="M4906 3208 c-14 -20 -16 -105 -16 -720 l0 -698 131 0 c72 0 129 3
127 8 -39 82 -40 82 -88 82 -25 0 -51 5 -58 12 -9 9 -12 158 -12 609 0 329 3
600 8 602 4 3 6 -28 4 -69 l-4 -74 1116 0 1116 0 -1 -527 c0 -361 -3 -531 -11
-540 -7 -9 -38 -13 -95 -13 l-84 0 6 53 c13 113 16 121 73 187 31 36 61 68 66
71 8 7 -105 89 -123 89 -5 0 -21 -14 -34 -30 -24 -28 -30 -30 -99 -30 -41 0
-79 -5 -85 -11 -6 -6 -23 -9 -39 -7 -23 2 -31 10 -38 35 -13 44 -36 52 -36 12
0 -25 -3 -29 -22 -25 -13 3 -60 10 -106 17 -79 12 -84 12 -104 -8 -11 -12 -29
-45 -39 -74 l-18 -54 52 -25 c90 -43 97 -50 97 -96 0 -23 -3 -56 -6 -73 l-6
-31 -528 0 -527 0 5 25 c6 31 -3 31 -53 0 -46 -28 -128 -36 -119 -11 3 8 2 22
-4 31 -8 15 -12 13 -35 -14 -24 -29 -30 -31 -94 -32 -53 0 -63 -2 -45 -10 38
-15 92 -71 119 -123 14 -27 28 -45 33 -40 5 5 10 33 12 63 4 65 18 74 45 29
39 -67 55 -128 51 -184 -4 -48 -3 -54 15 -54 13 0 17 5 13 15 -3 10 7 23 33
39 56 36 73 56 67 79 -4 15 6 32 32 59 l37 38 465 0 466 0 -4 -134 c-4 -124
-3 -134 14 -140 131 -38 320 -48 412 -21 l52 16 0 139 0 140 136 0 c115 0 139
3 149 16 10 14 15 15 35 4 34 -18 146 -8 196 18 125 64 202 207 175 326 -14
65 -42 118 -84 161 -32 33 -103 75 -142 84 -25 6 -122 6 -155 1 l-24 -5 -1
402 c0 390 -1 403 -20 417 -18 14 -162 15 -1202 16 l-1182 0 -15 -22z m1414
-140 c24 -26 25 -32 4 -63 l-16 -25 -589 0 -589 0 -15 24 c-17 26 -8 69 17 79
7 3 273 6 590 6 l577 1 21 -22z m855 -33 l0 -50 -54 -3 c-60 -3 -71 4 -71 54
0 43 17 55 75 52 l50 -3 0 -50z m405 -750 c0 -2 -17 -13 -39 -24 -48 -25 -59
-57 -28 -82 39 -32 63 -24 89 30 14 30 16 31 22 13 9 -26 -2 -72 -22 -94 -10
-12 -30 -18 -61 -18 -44 0 -47 -2 -133 -92 l-87 -93 -1 47 c0 44 4 51 63 113
57 62 62 71 62 112 1 58 36 93 96 93 21 0 39 -2 39 -5z m-2031 -499 c-2 -2
-14 -8 -26 -14 -17 -9 -22 -9 -27 3 -4 11 2 15 26 15 17 0 29 -2 27 -4z"/>
<path d="M5127 3063 c-11 -11 -8 -48 5 -61 9 -9 154 -12 590 -12 571 0 577 0
588 20 6 12 8 30 5 40 -6 20 -19 20 -594 20 -323 0 -591 -3 -594 -7z"/>
<path d="M7070 3029 l0 -40 48 3 c47 3 47 3 50 41 l3 37 -50 0 -51 0 0 -41z
m70 19 c0 -5 -5 -8 -11 -8 -8 0 -8 -4 0 -14 9 -11 7 -13 -11 -13 -17 0 -23 5
-23 21 0 15 6 21 23 21 12 0 22 -3 22 -7z"/>
<path d="M4398 3043 c-24 -31 -28 -46 -28 -99 0 -72 6 -94 26 -94 20 0 28 25
15 48 -13 24 -5 52 15 52 8 0 17 7 20 15 8 19 38 19 53 1 15 -18 61 -27 83
-15 10 5 25 23 33 39 14 28 14 31 -5 50 -30 30 -63 40 -128 40 -54 -1 -59 -3
-84 -37z"/>
<path d="M22727 3062 c-16 -17 -17 -97 -17 -945 l0 -927 -65 0 -65 0 0 -70 c0
-57 4 -74 20 -90 20 -20 33 -20 1650 -20 1617 0 1630 0 1650 20 16 16 20 33
20 90 l0 70 -65 0 -65 0 0 922 c0 810 -2 924 -15 945 l-15 23 -1509 0 c-1448
0 -1509 -1 -1524 -18z m473 -257 c0 -13 -20 -15 -137 -13 -98 2 -138 6 -141
16 -3 9 29 12 137 12 120 0 141 -2 141 -15z m253 0 c1 -6 -37 -11 -95 -13 -84
-2 -98 0 -98 13 0 13 14 15 95 13 53 -2 96 -7 98 -13z m307 5 c0 -6 -48 -9
-127 -8 l-128 2 125 6 c69 3 126 7 128 8 1 1 2 -2 2 -8z m140 -5 c0 -11 -12
-15 -45 -15 -33 0 -45 4 -45 15 0 11 12 15 45 15 33 0 45 -4 45 -15z m293 0
c1 -6 -45 -11 -120 -13 -106 -2 -123 0 -123 13 0 13 17 15 120 13 69 -2 121
-7 123 -13z m247 0 c0 -12 -17 -15 -95 -15 -78 0 -95 3 -95 15 0 12 17 15 95
15 78 0 95 -3 95 -15z m200 0 c0 -12 -14 -15 -65 -15 -51 0 -65 3 -65 15 0 12
14 15 65 15 51 0 65 -3 65 -15z m-1570 -110 c0 -12 -14 -15 -70 -15 -56 0 -70
3 -70 15 0 12 14 15 70 15 56 0 70 -3 70 -15z m80 0 c0 -8 -9 -15 -20 -15 -11
0 -20 7 -20 15 0 8 9 15 20 15 11 0 20 -7 20 -15z m90 0 c0 -9 -9 -15 -25 -15
-16 0 -25 6 -25 15 0 9 9 15 25 15 16 0 25 -6 25 -15z m190 0 c0 -12 -15 -15
-75 -15 -60 0 -75 3 -75 15 0 12 15 15 75 15 60 0 75 -3 75 -15z m130 0 c0
-11 -12 -15 -45 -15 -33 0 -45 4 -45 15 0 11 12 15 45 15 33 0 45 -4 45 -15z
m300 0 c0 -13 -21 -15 -130 -15 -109 0 -130 2 -130 15 0 13 21 15 130 15 109
0 130 -2 130 -15z m160 0 c0 -12 -12 -15 -52 -13 l-53 1 50 7 50 7 -52 1 c-33
1 -53 -2 -56 -10 -3 -8 -6 -6 -6 5 -1 14 8 17 59 17 47 0 60 -3 60 -15z m430
0 c0 -13 -28 -15 -195 -15 -167 0 -195 2 -195 15 0 13 28 15 195 15 167 0 195
-2 195 -15z m290 0 c0 -13 -21 -15 -125 -15 -104 0 -125 2 -125 15 0 13 21 15
125 15 104 0 125 -2 125 -15z m150 0 c0 -11 -12 -15 -45 -15 -33 0 -45 4 -45
15 0 11 12 15 45 15 33 0 45 -4 45 -15z m197 0 c0 -12 -14 -15 -63 -15 -46 0
-63 4 -68 15 -4 12 6 15 63 15 53 0 68 -3 68 -15z m-1962 -105 c4 -6 -30 -10
-94 -10 -61 0 -101 4 -101 10 0 6 38 10 94 10 53 0 98 -4 101 -10z m125 0 c0
-5 -20 -10 -45 -10 -25 0 -45 5 -45 10 0 6 20 10 45 10 25 0 45 -4 45 -10z
m238 -2 c-3 -9 -33 -13 -103 -13 -70 0 -99 4 -102 13 -4 9 21 12 102 12 81 0
106 -3 103 -12z m162 2 c0 -6 -28 -10 -65 -10 -37 0 -65 4 -65 10 0 6 28 10
65 10 37 0 65 -4 65 -10z m348 0 c-5 -16 -320 -18 -325 -2 -4 9 33 12 162 12
107 0 165 -4 163 -10z m152 0 c0 -6 -28 -10 -65 -10 -37 0 -65 4 -65 10 0 6
28 10 65 10 37 0 65 -4 65 -10z m275 0 c4 -6 -37 -10 -114 -10 -74 0 -121 4
-121 10 0 6 45 10 114 10 66 0 117 -4 121 -10z m-1215 -105 c0 -13 -22 -15
-140 -15 -118 0 -140 2 -140 15 0 13 22 15 140 15 118 0 140 -2 140 -15z m390
0 c0 -11 -12 -15 -45 -15 -33 0 -45 4 -45 15 0 11 12 15 45 15 33 0 45 -4 45
-15z m-192 -2 c-26 -2 -71 -2 -100 0 -29 2 -8 3 47 3 55 0 79 -1 53 -3z m-288
-108 c0 -12 -17 -15 -95 -15 -78 0 -95 3 -95 15 0 12 17 15 95 15 78 0 95 -3
95 -15z m130 0 c0 -11 -12 -15 -45 -15 -33 0 -45 4 -45 15 0 11 12 15 45 15
33 0 45 -4 45 -15z m150 0 c0 -12 -13 -15 -55 -15 -42 0 -55 3 -55 15 0 12 13
15 55 15 42 0 55 -3 55 -15z m-132 -107 c-3 -9 -34 -14 -96 -16 -77 -2 -92 0
-92 13 0 12 16 15 96 15 72 0 95 -3 92 -12z m282 1 c0 -5 -54 -9 -125 -9 -71
0 -125 4 -125 9 0 6 54 10 125 10 71 0 125 -4 125 -10z m-412 -106 c-3 -16
-17 -18 -106 -21 -97 -3 -102 -2 -102 18 0 19 6 20 106 20 95 0 105 -2 102
-17z m132 -3 c0 -5 -20 -10 -45 -10 -25 0 -45 5 -45 10 0 6 20 10 45 10 25 0
45 -4 45 -10z m150 3 c0 -5 -22 -8 -50 -8 -27 0 -50 3 -50 8 0 4 23 7 50 7 28
0 50 -3 50 -7z m-120 -108 c0 -12 -18 -15 -100 -15 -84 0 -98 2 -94 15 5 12
26 15 100 15 77 0 94 -3 94 -15z m200 -7 c0 -4 -31 -8 -70 -8 -42 0 -70 4 -70
11 0 6 26 9 70 8 39 -1 70 -6 70 -11z m190 2 c0 -6 -30 -10 -70 -10 -40 0 -70
4 -70 10 0 6 30 10 70 10 40 0 70 -4 70 -10z m545 -60 c0 -18 -6 -26 -23 -28
-13 -2 -25 3 -28 12 -10 26 4 48 28 44 17 -2 23 -10 23 -28z m100 0 c0 -29
-34 -40 -54 -17 -18 23 -2 49 28 45 20 -2 26 -8 26 -28z m110 20 c12 -20 -6
-50 -30 -50 -25 0 -38 21 -29 45 7 17 49 20 59 5z m-1095 -65 c0 -12 -14 -15
-65 -15 -51 0 -65 3 -65 15 0 12 14 15 65 15 51 0 65 -3 65 -15z m90 0 c0 -9
-9 -15 -25 -15 -16 0 -25 6 -25 15 0 9 9 15 25 15 16 0 25 -6 25 -15z m255 0
c0 -11 -178 -20 -202 -10 -8 2 -11 10 -8 15 9 14 210 9 210 -5z m175 0 c0 -12
-13 -15 -59 -15 -56 0 -79 9 -64 24 3 3 33 6 65 6 45 0 58 -3 58 -15z m-747
-2 c-34 -2 -93 -2 -130 0 -37 2 -9 3 62 3 72 0 102 -1 68 -3z m1655 -80 l3
-23 -305 0 -306 0 0 25 0 25 303 -2 302 -3 3 -22z m-1708 -23 c0 -18 -7 -20
-70 -20 -63 0 -70 2 -70 20 0 18 7 20 70 20 63 0 70 -2 70 -20z m235 0 c0 -12
-19 -16 -97 -18 -93 -3 -98 -2 -98 18 0 20 5 21 98 18 78 -2 97 -6 97 -18z
m350 0 c0 -12 -18 -16 -94 -18 -92 -3 -120 5 -106 27 4 8 40 11 103 9 78 -2
97 -6 97 -18z m420 0 c0 -13 -28 -15 -184 -18 -105 -1 -189 2 -194 7 -26 26 9
31 191 29 158 -3 187 -5 187 -18z m-665 0 c0 -5 -16 -10 -35 -10 -19 0 -35 5
-35 10 0 6 16 10 35 10 19 0 35 -4 35 -10z m1298 -67 l3 -23 -270 0 -271 0 0
25 0 25 268 -2 267 -3 3 -22z m-1378 -43 c0 -6 -47 -10 -120 -10 -73 0 -120 4
-120 10 0 6 47 10 120 10 73 0 120 -4 120 -10z m170 0 c0 -6 -27 -10 -60 -10
-33 0 -60 4 -60 10 0 6 27 10 60 10 33 0 60 -4 60 -10z m240 0 c0 -6 -40 -10
-100 -10 -60 0 -100 4 -100 10 0 6 40 10 100 10 60 0 100 -4 100 -10z m180 0
c0 -6 -28 -10 -65 -10 -37 0 -65 4 -65 10 0 6 28 10 65 10 37 0 65 -4 65 -10z
m998 -47 l3 -23 -375 0 -376 0 0 25 0 25 373 -2 372 -3 3 -22z m-1738 -73 c0
-6 -47 -10 -120 -10 -73 0 -120 4 -120 10 0 6 47 10 120 10 73 0 120 -4 120
-10z m310 0 c0 -6 -48 -10 -125 -10 -77 0 -125 4 -125 10 0 6 48 10 125 10 77
0 125 -4 125 -10z m280 0 c0 -5 -25 -10 -55 -10 -30 0 -55 5 -55 10 0 6 25 10
55 10 30 0 55 -4 55 -10z m1238 -12 l-3 -23 -417 -3 -418 -2 0 25 0 25 421 0
420 0 -3 -22z m-298 -88 c0 -20 -7 -20 -270 -20 -263 0 -270 0 -270 20 0 20 7
20 270 20 263 0 270 0 270 -20z m-1640 -5 c0 -11 -11 -15 -40 -15 -29 0 -40 4
-40 15 0 11 11 15 40 15 29 0 40 -4 40 -15z m270 1 c19 -1 -20 -3 -88 -4 -68
-1 -121 1 -119 6 5 6 125 6 207 -2z m180 -1 c0 -11 -12 -15 -45 -15 -33 0 -45
4 -45 15 0 11 12 15 45 15 33 0 45 -4 45 -15z m310 0 c0 -13 -19 -15 -132 -13
-94 2 -133 7 -136 16 -3 9 28 12 132 12 115 0 136 -2 136 -15z m-610 -107 c0
-10 -28 -12 -117 -10 -164 4 -171 22 -10 22 95 0 127 -3 127 -12z m260 -3 c0
-12 -18 -15 -105 -15 -87 0 -105 3 -105 15 0 12 18 15 105 15 87 0 105 -3 105
-15z m290 5 c0 -6 -48 -10 -125 -10 -77 0 -125 4 -125 10 0 6 48 10 125 10 77
0 125 -4 125 -10z m260 -5 c0 -12 -18 -15 -105 -15 -87 0 -105 3 -105 15 0 12
18 15 105 15 87 0 105 -3 105 -15z"/>
<path d="M23668 2693 c34 -2 90 -2 125 0 34 2 6 3 -63 3 -69 0 -97 -1 -62 -3z"/>
<path d="M24583 2693 c26 -2 68 -2 95 0 26 2 4 3 -48 3 -52 0 -74 -1 -47 -3z"/>
<path d="M22988 2373 c23 -2 61 -2 85 0 23 2 4 4 -43 4 -47 0 -66 -2 -42 -4z"/>
<path d="M26560 3020 c-19 -10 -46 -19 -60 -20 -23 -1 -24 -1 -6 -12 18 -10
18 -12 2 -23 -15 -12 -14 -15 14 -44 38 -37 64 -45 135 -39 46 4 55 2 55 -12
0 -11 9 -16 28 -15 22 0 28 -5 30 -28 2 -16 -3 -36 -11 -45 -18 -20 -12 -112
7 -112 18 0 120 -50 128 -63 14 -22 16 -1 8 83 -5 47 -9 117 -10 155 -1 80
-25 146 -62 167 -12 7 -41 14 -63 15 -22 2 -67 5 -100 8 -48 4 -67 1 -95 -15z"/>
<path d="M6650 2846 c-20 -19 -94 -24 -113 -7 -9 7 -26 11 -39 9 -18 -2 -24
-11 -28 -38 -6 -43 -30 -80 -51 -80 -18 0 -49 -30 -49 -48 0 -15 -37 -35 -50
-27 -6 3 -10 -5 -10 -19 0 -14 5 -28 10 -31 6 -3 10 0 10 8 0 20 48 50 67 43
30 -12 53 4 53 36 0 36 35 88 59 88 10 0 24 6 30 14 13 15 101 27 101 13 0 -4
12 -13 28 -20 37 -16 51 -36 52 -72 0 -50 47 -76 68 -38 11 18 130 55 147 45
15 -9 45 -10 45 -1 0 15 -23 59 -31 59 -5 0 -13 -8 -18 -19 -7 -11 -33 -24
-72 -34 -54 -13 -64 -14 -76 -1 -8 8 -20 14 -27 14 -22 0 -39 29 -38 63 1 52
-35 75 -68 43z"/>
<path d="M14227 2829 c7 -7 15 -10 18 -7 3 3 -2 9 -12 12 -14 6 -15 5 -6 -5z"/>
<path d="M16761 2810 c-24 -16 -45 -31 -48 -33 -2 -3 1 -25 8 -51 13 -51 10
-51 90 0 l37 23 -11 45 c-6 25 -15 46 -21 45 -6 0 -31 -13 -55 -29z"/>
<path d="M14987 2806 c-22 -58 3 -76 105 -76 40 0 153 -5 250 -12 188 -12 208
-9 208 33 0 37 -38 46 -205 53 -88 3 -203 9 -256 13 -85 5 -97 4 -102 -11z"/>
<path d="M4290 2771 c-68 -35 -126 -140 -168 -304 -25 -94 -20 -409 8 -587 12
-74 22 -146 23 -160 0 -14 -14 -86 -32 -160 -17 -74 -33 -145 -36 -157 -4 -17
3 -25 40 -43 58 -28 64 -24 120 94 50 105 80 190 91 261 l8 50 12 -95 c17
-138 32 -237 46 -307 l12 -63 43 0 c56 0 61 11 79 195 32 324 32 332 -33 526
-28 81 -34 114 -29 141 l7 37 62 -29 c61 -29 162 -54 177 -45 4 3 10 16 12 30
5 21 -3 30 -51 62 -31 20 -66 44 -78 53 -21 16 -20 17 26 12 47 -4 49 -3 59
27 10 29 9 32 -19 47 -25 12 -28 18 -18 30 6 8 10 16 8 17 -78 53 -108 98
-123 182 -4 22 -14 71 -24 108 l-17 68 -49 14 c-66 20 -114 19 -156 -4z"/>
<path d="M14386 2761 c-4 -7 -5 -15 -2 -18 9 -9 19 4 14 18 -4 11 -6 11 -12 0z"/>
<path d="M13897 2729 c7 -7 15 -10 18 -7 3 3 -2 9 -12 12 -14 6 -15 5 -6 -5z"/>
<path d="M16793 2687 c-51 -31 -61 -48 -45 -74 5 -8 23 -2 59 20 43 26 52 37
53 60 0 33 -2 33 -67 -6z"/>
<path d="M14340 2631 c0 -7 -71 -45 -79 -41 -2 1 -7 -3 -10 -8 -3 -5 -32 -24
-65 -42 -55 -31 -57 -34 -40 -47 61 -46 65 -46 153 7 45 27 100 57 122 67 39
18 50 33 25 33 -8 0 -35 9 -60 20 -25 10 -46 16 -46 11z"/>
<path d="M15064 2627 c-3 -9 -3 -20 -1 -24 3 -5 2 -33 -1 -63 l-7 -55 -48 -7
c-58 -8 -64 -12 -46 -34 9 -11 25 -15 58 -12 40 3 49 0 69 -24 27 -31 76 -50
135 -50 56 0 93 16 128 53 34 37 65 34 55 -5 -10 -39 4 -83 40 -124 41 -48 94
-74 148 -74 33 1 45 -5 66 -29 19 -24 32 -30 53 -27 l28 3 -36 42 -37 43 24
31 c13 17 36 45 53 61 29 29 29 30 10 45 -68 51 -226 113 -288 113 -31 0 -55
10 -106 45 -109 74 -283 127 -297 92z m205 -62 c60 -27 110 -69 98 -82 -4 -3
-25 3 -46 15 -21 12 -45 22 -52 22 -8 -1 -1 -8 14 -16 37 -20 30 -27 -12 -13
-31 11 -110 7 -168 -7 -21 -6 -23 -3 -23 33 0 87 65 103 189 48z m19 -91 c32
-9 58 -18 60 -19 9 -8 -22 -47 -50 -61 -63 -32 -203 0 -203 47 0 8 26 20 65
30 36 9 67 17 68 18 2 0 29 -6 60 -15z m328 -49 c43 -20 74 -40 74 -49 0 -8 5
-16 11 -18 15 -5 5 -36 -25 -73 l-24 -30 -23 30 c-44 57 -97 105 -115 105 -16
-1 -16 -2 4 -13 21 -12 102 -122 102 -139 0 -14 -70 -9 -99 6 -15 8 -42 31
-60 51 -25 28 -31 45 -31 80 0 24 5 47 10 50 6 4 7 11 4 17 -11 17 19 29 60
23 21 -3 72 -21 112 -40z"/>
<path d="M6211 2566 c-15 -16 -35 -26 -52 -26 -33 0 -52 -26 -38 -52 5 -10 21
-18 34 -18 19 0 26 7 31 28 4 15 18 36 32 48 14 11 23 26 21 33 -3 8 -13 3
-28 -13z"/>
<path d="M6723 2557 c-7 -7 -19 -18 -28 -25 -24 -20 8 -92 41 -92 23 0 47 -40
48 -82 1 -41 3 -44 43 -57 49 -17 65 -9 89 47 31 75 11 161 -46 197 -43 27
-125 34 -147 12z"/>
<path d="M6330 2483 c44 -140 54 -164 70 -173 10 -6 21 -10 24 -10 3 0 6 47 6
105 l0 105 -54 0 -55 0 9 -27z"/>
<path d="M26009 2373 c-34 -9 -39 -49 -38 -286 1 -128 4 -272 8 -321 l6 -89
52 53 52 52 355 -3 c345 -4 355 -3 370 16 12 15 15 49 16 145 l0 126 -35 -4
c-21 -3 -35 -10 -35 -18 0 -12 -36 -14 -201 -14 -186 0 -200 1 -197 18 3 15
18 17 123 20 169 4 174 22 7 22 -111 0 -132 2 -132 15 0 13 28 15 188 15 146
0 199 4 235 16 l47 16 0 97 c0 82 -3 101 -18 114 -17 15 -58 17 -403 16 -211
-1 -391 -3 -400 -6z m329 -217 c2 -86 -1 -133 -9 -142 -15 -19 -269 -20 -287
-2 -13 13 -18 232 -6 262 6 14 26 16 153 14 l146 -3 3 -129z m422 119 c0 -13
-28 -15 -190 -15 -104 0 -193 0 -197 -1 -5 0 -9 7 -11 15 -3 14 21 16 197 16
172 0 201 -2 201 -15z m0 -60 c0 -13 -28 -15 -190 -15 -104 0 -193 0 -197 -1
-5 0 -9 7 -11 15 -3 14 21 16 197 16 172 0 201 -2 201 -15z m0 -55 c0 -20 -5
-20 -197 -18 -179 3 -198 5 -201 21 -3 16 11 17 197 17 195 0 201 -1 201 -20z
m-430 -205 c0 -12 -20 -15 -120 -15 -100 0 -120 3 -120 15 0 13 20 15 120 15
100 0 120 -2 120 -15z m430 0 c0 -13 -29 -15 -200 -15 -171 0 -200 2 -200 15
0 13 29 15 200 15 171 0 200 -2 200 -15z m0 -60 c0 -13 -44 -15 -335 -15 -291
0 -335 2 -335 15 0 13 44 15 335 15 291 0 335 -2 335 -15z"/>
<path d="M16470 2354 c0 -14 3 -14 15 -4 8 7 15 14 15 16 0 2 -7 4 -15 4 -8 0
-15 -7 -15 -16z"/>
<path d="M14220 2275 c0 -65 3 -86 13 -82 8 2 12 28 12 82 0 54 -4 80 -12 83
-10 3 -13 -18 -13 -83z"/>
<path d="M16220 2251 c-85 -48 -236 -133 -335 -189 -231 -130 -213 -117 -197
-133 6 -7 12 -21 12 -30 0 -14 33 1 148 65 361 202 567 318 571 322 8 8 -19
54 -31 54 -7 0 -83 -40 -168 -89z"/>
<path d="M4793 2308 c-22 -46 -23 -58 -5 -58 19 0 56 63 45 74 -13 12 -30 5
-40 -16z"/>
<path d="M8181 2234 c-18 -23 -32 -60 -48 -124 -2 -8 -4 -25 -5 -37 0 -13 -3
-23 -7 -23 -4 0 -7 -8 -7 -17 -1 -10 -5 -43 -9 -73 -4 -30 -7 -63 -7 -72 1
-25 -17 -33 -24 -11 -18 54 -28 73 -39 73 -8 0 -15 -6 -18 -12 -2 -7 -3 -5 -2
5 2 9 -1 17 -5 17 -5 0 -9 12 -9 28 1 42 -24 114 -44 126 -15 9 -21 6 -37 -14
-17 -22 -19 -39 -16 -147 2 -68 2 -123 1 -123 -2 0 -18 14 -35 30 -18 17 -38
29 -44 27 -31 -10 -6 -147 27 -147 14 0 47 -66 68 -135 14 -49 29 -69 41 -57
6 6 3 48 -7 107 -13 73 -14 104 -6 121 27 59 51 6 58 -125 5 -94 8 -107 24
-108 16 -2 18 7 16 85 -2 69 1 87 12 87 20 0 39 -60 41 -125 0 -48 2 -53 14
-37 7 9 16 17 19 17 4 0 4 -8 0 -17 -14 -41 16 5 38 57 26 62 67 129 80 131 5
1 14 2 21 3 15 1 39 103 31 134 -4 18 -11 22 -31 20 -22 -2 -33 -17 -64 -78
-29 -58 -36 -67 -31 -40 3 19 10 42 14 51 5 9 6 19 3 21 -2 3 0 18 6 33 6 15
13 44 16 64 3 20 8 52 11 71 3 19 5 47 5 63 -1 15 2 27 6 27 4 0 7 25 7 55 0
30 -3 55 -7 55 -5 0 -8 9 -8 20 0 28 -25 25 -49 -6z m-94 -416 c-3 -8 -6 -5
-6 6 -1 11 2 17 5 13 3 -3 4 -12 1 -19z"/>
<path d="M6310 2090 l0 -140 60 0 60 0 0 98 0 98 -47 35 c-27 19 -54 38 -60
42 -10 6 -13 -23 -13 -133z"/>
<path d="M16905 2167 c-22 -12 -40 -28 -39 -35 1 -7 2 -24 3 -38 l1 -25 60 32
c63 33 66 38 50 70 -14 24 -26 24 -75 -4z"/>
<path d="M17035 2128 c42 -183 41 -178 16 -178 -15 0 -21 12 -32 65 -7 35 -16
70 -19 76 -10 15 -110 -41 -110 -63 0 -9 7 -46 15 -83 16 -67 14 -85 -9 -85
-8 0 -23 45 -41 123 -15 67 -30 125 -32 129 -2 5 -29 -8 -59 -27 -30 -19 -56
-35 -59 -35 -2 0 -37 -20 -77 -43 -60 -36 -336 -197 -488 -285 -19 -11 -117
-67 -217 -125 l-181 -105 -6 32 c-4 18 -17 43 -31 56 -14 13 -25 29 -25 35 0
21 -36 45 -66 45 -51 0 -71 -22 -78 -90 -4 -33 -11 -60 -16 -60 -5 0 -31 -23
-58 -50 l-50 -50 -58 33 c-33 18 -104 60 -158 92 l-99 58 36 19 c20 10 52 29
72 42 20 14 41 27 48 29 7 2 9 7 5 11 -3 4 -53 -19 -111 -52 -79 -45 -103 -55
-100 -41 3 11 -1 21 -11 25 -20 8 -11 24 14 24 10 0 22 5 26 11 5 9 -8 10 -47
5 -52 -6 -57 -5 -137 44 -54 33 -84 45 -87 37 -2 -6 -16 -61 -30 -122 -14 -60
-33 -139 -42 -174 -15 -64 -15 -64 8 -82 13 -10 28 -19 32 -19 4 0 31 -15 60
-33 29 -18 141 -84 250 -147 138 -79 202 -120 208 -137 5 -12 14 -35 19 -49
10 -24 12 -25 28 -12 33 29 46 33 40 12 -3 -10 -9 -26 -13 -36 -5 -12 5 -23
36 -41 l43 -26 29 25 c28 24 29 24 59 7 17 -10 36 -26 42 -35 12 -19 75 -25
92 -9 5 5 135 83 289 172 154 89 404 234 555 322 151 87 397 229 545 315 149
85 278 162 288 170 20 18 24 95 5 112 -15 12 -228 140 -234 140 -3 0 -22 11
-44 25 l-41 26 6 -23z m-1408 -619 c-4 -15 0 -30 10 -41 15 -17 15 -18 -3 -18
-19 0 -84 62 -84 80 0 6 8 18 18 28 16 17 18 17 41 -4 17 -16 22 -29 18 -45z
m-184 -146 c14 -17 13 -20 -8 -47 -37 -46 -25 -55 52 -39 36 8 68 11 72 8 11
-11 -24 -25 -64 -25 -22 0 -49 -3 -60 -6 -16 -4 -28 7 -55 48 -19 29 -36 56
-38 60 -7 15 21 8 33 -9 11 -15 13 -15 24 5 14 27 23 27 44 5z m-69 -88 c3 -8
3 -22 0 -30 -8 -21 -34 0 -34 26 0 23 25 25 34 4z m386 -80 c0 -79 -3 -81
-109 -59 -57 11 -93 24 -96 33 -10 25 10 33 41 15 22 -13 41 -15 76 -10 l46 7
-8 33 c-7 32 -6 33 21 32 28 -1 29 -3 29 -51z"/>
<path d="M13940 2076 c0 -2 7 -7 16 -10 8 -3 12 -2 9 4 -6 10 -25 14 -25 6z"/>
<path d="M13852 2007 c-15 -18 -31 -94 -32 -148 0 -47 11 -58 58 -59 17 0 44
65 44 106 0 19 8 40 19 50 10 9 19 23 19 30 0 30 -87 47 -108 21z"/>
<path d="M14375 1976 c-11 -7 -73 -44 -137 -82 l-118 -69 0 -292 0 -293 88 0
c85 0 86 1 64 18 -22 17 -22 20 -20 205 l3 187 139 -80 c77 -44 143 -77 146
-73 4 5 22 71 39 148 18 77 37 155 43 174 9 29 8 36 -8 48 -37 27 -202 123
-210 122 -5 0 -18 -6 -29 -13z"/>
<path d="M21685 1850 c20 -32 278 -41 364 -13 67 21 59 29 -10 9 -66 -20 -235
-21 -306 -3 -29 8 -50 11 -48 7z"/>
<path d="M14660 1822 c0 -11 -2 -27 -5 -34 -4 -10 12 -24 45 -42 28 -15 53
-26 56 -23 3 2 6 17 7 32 2 23 -6 31 -50 57 -50 28 -53 29 -53 10z"/>
<path d="M21691 1814 c0 -11 3 -14 6 -6 3 7 2 16 -1 19 -3 4 -6 -2 -5 -13z"/>
<path d="M22093 1794 c-5 -15 1 -88 13 -149 6 -29 10 -56 13 -83 0 -7 5 -11
10 -8 4 3 2 38 -6 78 -8 40 -12 83 -10 95 2 13 0 20 -6 16 -6 -3 -8 8 -5 31 4
38 1 46 -9 20z"/>
<path d="M21677 1684 c3 -38 7 -71 9 -73 8 -9 3 115 -5 128 -5 8 -7 -14 -4
-55z"/>
<path d="M14632 1700 c-9 -38 -8 -42 14 -55 13 -8 36 -22 50 -31 30 -18 29
-19 42 29 10 37 10 38 -29 63 -63 39 -65 39 -77 -6z"/>
<path d="M14605 1584 c-7 -41 -3 -47 57 -83 40 -24 42 -22 52 30 6 35 5 38
-38 63 -25 14 -49 26 -54 26 -5 0 -13 -16 -17 -36z"/>
<path d="M21660 1426 c-8 -95 -12 -186 -9 -202 5 -22 7 -16 10 29 5 113 19
282 25 320 2 15 1 27 -4 27 -4 0 -14 -78 -22 -174z"/>
<path d="M13958 1535 c-4 -6 -2 -80 4 -165 10 -159 3 -360 -13 -360 -5 0 -9
-4 -9 -10 0 -13 29 -13 69 1 40 14 43 44 3 36 l-28 -6 0 212 c-1 198 -11 316
-26 292z"/>
<path d="M14586 1503 c-17 -18 -2 -44 40 -67 57 -32 66 -32 62 -4 -3 22 -90
82 -102 71z"/>
<path d="M17270 1463 l0 -48 -147 -85 c-81 -47 -170 -98 -198 -113 -27 -16
-86 -50 -130 -76 -44 -27 -188 -110 -320 -186 -132 -76 -303 -175 -380 -220
-327 -191 -474 -275 -484 -275 -6 0 -11 4 -11 10 0 9 -55 45 -162 106 -30 17
-45 31 -41 40 3 8 -5 23 -17 34 -21 18 -24 18 -35 4 -9 -14 -16 -14 -33 -5
-12 6 -22 19 -22 27 0 18 -23 44 -39 44 -6 0 -11 -4 -11 -10 0 -17 -13 -12
-105 43 -50 29 -120 70 -156 90 l-67 37 5 -43 c3 -26 -1 -57 -10 -80 -14 -33
-20 -37 -54 -37 -21 0 -218 -7 -438 -15 -220 -8 -413 -15 -430 -15 -23 0 -26
-3 -17 -12 14 -14 129 -14 701 3 194 5 339 5 344 0 13 -13 20 -85 13 -134 l-7
-44 -247 -6 c-136 -4 -371 -10 -522 -13 l-275 -6 -65 106 c-41 68 -71 106 -82
106 -15 0 -39 24 -63 65 -9 14 -16 16 -38 9 l-27 -9 118 -159 117 -158 370 6
c399 7 678 17 657 24 -28 9 -9 22 32 22 40 0 45 3 55 31 21 61 10 122 -32 168
l-22 25 40 -24 c22 -13 83 -48 135 -78 52 -29 100 -57 105 -61 6 -5 37 -23 70
-40 148 -80 235 -135 235 -147 0 -37 65 -12 253 97 106 62 278 161 382 222
105 61 231 134 280 163 196 113 454 263 525 306 41 24 82 47 90 51 8 4 67 37
130 74 l115 68 3 51 c3 47 1 53 -30 76 -58 43 -58 43 -58 -9z"/>
<path d="M21880 1500 c0 -6 10 -10 21 -10 19 0 21 -4 16 -37 -5 -26 -3 -33 3
-23 7 11 10 7 10 -17 0 -17 4 -34 8 -37 5 -3 5 18 1 47 -4 29 -8 59 -8 67 -1
17 -51 26 -51 10z"/>
<path d="M22133 1494 c-3 -8 -3 -41 1 -72 4 -31 9 -79 12 -107 3 -27 9 -75 14
-105 7 -42 8 -31 3 45 -4 55 -7 121 -7 147 -1 27 -4 41 -9 35 -5 -7 -7 7 -5
31 4 44 1 52 -9 26z"/>
<path d="M21866 1439 c-23 -102 -30 -175 -18 -183 7 -4 9 6 5 30 -5 29 -3 35
7 29 9 -6 11 -4 5 4 -4 7 -2 40 5 72 7 33 10 62 7 65 -3 4 -8 -4 -11 -17z"/>
<path d="M5193 1408 c2 -24 11 -82 18 -130 l13 -88 156 0 155 0 21 125 c11 69
18 127 16 130 -3 3 -91 5 -195 5 l-189 0 5 -42z"/>
<path d="M13877 1397 c11 -30 13 -65 9 -122 l-5 -80 15 65 c12 52 13 76 4 117
-6 28 -17 54 -24 56 -10 4 -10 -3 1 -36z"/>
<path d="M7867 1393 c3 -21 11 -69 19 -108 8 -38 14 -80 14 -92 0 -23 1 -23
155 -23 152 0 155 0 159 23 7 29 27 152 33 200 l5 37 -195 0 -196 0 6 -37z"/>
<path d="M17703 1337 c-29 -18 -92 -56 -140 -86 -48 -30 -176 -108 -283 -174
-107 -66 -233 -144 -280 -172 -192 -119 -378 -233 -432 -266 -32 -19 -58 -40
-58 -46 0 -21 -46 -47 420 240 160 99 364 224 600 369 227 139 240 147 240
158 0 15 -11 12 -67 -23z"/>
<path d="M4083 1342 c-5 -4 -17 -21 -26 -38 l-16 -31 57 -22 c31 -13 78 -31
104 -42 58 -24 58 -24 58 2 0 12 -23 42 -56 74 -54 51 -98 71 -121 57z"/>
<path d="M21943 1288 c1 -31 6 -53 11 -51 5 3 7 -8 4 -25 -2 -17 -1 -29 4 -26
4 3 8 -8 8 -25 0 -16 4 -32 8 -35 8 -5 -1 96 -11 124 -4 8 -8 30 -11 48 -8 56
-16 49 -13 -10z"/>
<path d="M4456 1280 c-35 -11 -46 -25 -46 -62 0 -33 6 -34 138 -42 87 -5 92
-5 92 14 0 15 -17 27 -64 49 -35 16 -66 34 -70 40 -8 13 -10 13 -50 1z"/>
<path d="M21830 1220 c0 -12 1 -6 -10 -55 -5 -22 -12 -67 -14 -100 l-5 -60 12
58 c7 33 14 57 17 54 3 -3 6 21 8 54 1 32 0 59 -3 59 -3 0 -5 -4 -5 -10z"/>
<path d="M21637 1082 c2 -42 0 -69 -4 -60 -5 9 -9 -30 -9 -87 -1 -57 -4 -119
-8 -139 -4 -20 -3 -36 2 -36 5 0 9 23 11 52 1 28 4 55 6 59 10 16 17 276 8
282 -6 4 -9 -22 -6 -71z"/>
<path d="M22177 938 c4 -154 3 -167 -14 -176 -10 -5 -32 -7 -49 -5 -22 3 -31
1 -31 -10 0 -11 9 -12 44 -6 25 5 49 11 54 14 10 7 10 165 -1 275 -5 49 -6 17
-3 -92z"/>
<path d="M21983 1039 c1 -31 5 -55 9 -53 9 6 21 -93 12 -108 -5 -10 -4 -10 6
-1 11 10 11 27 1 94 -17 109 -30 142 -28 68z"/>
<path d="M13854 1065 c-4 -8 -15 -15 -25 -15 -10 0 -19 -7 -19 -15 0 -8 6 -15
13 -15 18 0 77 38 77 50 0 16 -40 12 -46 -5z"/>
<path d="M17523 945 c-17 -13 -17 -14 2 -21 11 -4 34 -13 52 -20 25 -10 35
-10 48 0 15 11 11 15 -33 33 -43 18 -53 19 -69 8z"/>
<path d="M21787 943 c-10 -16 -29 -159 -24 -183 3 -21 5 -19 6 8 0 18 5 31 10
28 5 -4 7 2 4 13 -2 10 0 44 6 76 10 55 9 77 -2 58z"/>
<path d="M17400 870 c-11 -7 -9 -11 13 -19 15 -6 39 -16 53 -21 19 -8 30 -7
41 2 12 10 7 15 -29 29 -50 21 -58 22 -78 9z"/>
<path d="M22020 798 c0 -13 4 -30 10 -38 6 -10 9 -5 8 18 -1 37 -18 56 -18 20z"/>
<path d="M22202 790 c0 -19 2 -27 5 -17 2 9 2 25 0 35 -3 9 -5 1 -5 -18z"/>
<path d="M17276 797 c-16 -12 -12 -15 38 -30 36 -12 62 -15 72 -9 16 9 13 10
-81 48 -6 3 -19 -1 -29 -9z"/>
<path d="M17609 740 c-20 -16 -21 -19 -7 -20 25 0 68 22 62 31 -9 15 -30 10
-55 -11z"/>
<path d="M21635 750 c-3 -5 -3 -10 2 -10 4 -1 27 -5 51 -9 34 -7 42 -6 42 7 0
11 -8 13 -35 9 -19 -3 -35 -2 -35 4 0 12 -17 12 -25 -1z"/>
<path d="M26426 743 c6 -4 14 -15 17 -23 5 -11 6 -9 4 4 -1 11 -9 21 -17 23
-10 3 -11 2 -4 -4z"/>
<path d="M26850 746 c0 -2 8 -10 18 -17 15 -13 16 -12 3 4 -13 16 -21 21 -21
13z"/>
<path d="M22028 733 c6 -2 18 -2 25 0 6 3 1 5 -13 5 -14 0 -19 -2 -12 -5z"/>
<path d="M17156 721 c-3 -5 16 -18 43 -29 35 -14 53 -17 66 -9 16 9 13 12 -26
28 -49 20 -75 23 -83 10z"/>
<path d="M21748 723 c6 -2 18 -2 25 0 6 3 1 5 -13 5 -14 0 -19 -2 -12 -5z"/>
<path d="M26406 717 c3 -10 9 -15 12 -12 3 3 0 11 -7 18 -10 9 -11 8 -5 -6z"/>
<path d="M26898 723 c6 -2 18 -2 25 0 6 3 1 5 -13 5 -14 0 -19 -2 -12 -5z"/>
<path d="M26847 699 c4 -13 8 -18 11 -10 2 7 -1 18 -6 23 -8 8 -9 4 -5 -13z"/>
<path d="M26289 693 c-13 -16 -12 -17 4 -4 16 13 21 21 13 21 -2 0 -10 -8 -17
-17z"/>
<path d="M26810 695 c7 -8 17 -15 22 -15 6 0 5 7 -2 15 -7 8 -17 15 -22 15 -6
0 -5 -7 2 -15z"/>
<path d="M21690 685 c-14 -17 -51 -20 -67 -4 -7 7 -23 7 -54 -1 -62 -16 -89
-36 -89 -65 l0 -25 140 0 140 0 0 29 c0 27 -33 81 -50 81 -4 0 -13 -7 -20 -15z"/>
<path d="M22042 682 c-11 -9 -23 -34 -26 -54 l-7 -38 141 0 140 0 0 23 c0 48
-80 86 -137 65 -28 -10 -38 -10 -62 5 -27 16 -30 16 -49 -1z"/>
<path d="M26768 683 c6 -2 18 -2 25 0 6 3 1 5 -13 5 -14 0 -19 -2 -12 -5z"/>
<path d="M17708 661 c-20 -4 -25 -10 -19 -19 9 -15 71 -4 72 13 0 13 -18 15
-53 6z"/>
<path d="M26290 660 c8 -5 20 -10 25 -10 6 0 3 5 -5 10 -8 5 -19 10 -25 10 -5
0 -3 -5 5 -10z"/>
<path d="M17037 653 c-14 -13 -6 -22 38 -37 42 -14 75 -13 75 3 0 3 -22 14
-49 24 -55 19 -55 19 -64 10z"/>
<path d="M26338 643 c6 -2 18 -2 25 0 6 3 1 5 -13 5 -14 0 -19 -2 -12 -5z"/>
<path d="M26718 623 c6 -2 18 -2 25 0 6 3 1 5 -13 5 -14 0 -19 -2 -12 -5z"/>
<path d="M26903 623 c9 -2 23 -2 30 0 6 3 -1 5 -18 5 -16 0 -22 -2 -12 -5z"/>
<path d="M26788 613 c12 -2 30 -2 40 0 9 3 -1 5 -23 4 -22 0 -30 -2 -17 -4z"/>
<path d="M16923 583 c-23 -9 -13 -21 31 -38 28 -11 53 -14 68 -9 21 7 19 9
-27 30 -54 25 -54 25 -72 17z"/>
<path d="M13703 558 c8 -13 58 -94 112 -181 l98 -158 86 6 c47 2 248 9 446 15
513 15 543 17 556 42 16 29 14 110 -2 141 -13 24 -14 19 -14 -58 0 -46 -3 -86
-6 -89 -3 -3 -203 -10 -445 -16 -241 -5 -473 -12 -515 -15 -57 -4 -79 -2 -87
8 -15 18 -170 265 -188 300 -9 16 -23 27 -34 27 -19 0 -19 -2 -7 -22z"/>
<path d="M17696 525 c-4 -12 4 -15 39 -15 33 0 45 4 45 15 0 11 -11 15 -39 15
-25 0 -41 -5 -45 -15z"/>
<path d="M16790 500 c-11 -7 -9 -11 13 -19 15 -6 39 -16 53 -21 19 -8 30 -7
41 2 12 9 6 15 -34 30 -55 21 -53 21 -73 8z"/>
<path d="M6490 458 c-44 -12 -60 -25 -60 -49 0 -17 9 -19 110 -19 119 0 122 2
98 55 -9 20 -17 25 -32 20 -48 -15 -66 -17 -66 -6 0 13 -3 13 -50 -1z"/>
<path d="M6880 458 c-44 -12 -60 -25 -60 -49 0 -17 9 -19 111 -19 l111 0 -7
28 c-3 15 -13 34 -21 42 -12 13 -18 12 -44 -3 -27 -16 -31 -17 -36 -3 -7 18
-6 18 -54 4z"/>
<path d="M17624 439 c-8 -13 -5 -15 31 -23 27 -5 66 7 55 17 -12 10 -80 15
-86 6z"/>
<path d="M16670 430 c-11 -7 -3 -14 34 -30 44 -19 86 -20 86 -2 0 6 -89 42
-101 42 -2 0 -11 -4 -19 -10z"/>
<path d="M17501 361 c-12 -8 -10 -12 11 -22 15 -6 34 -9 44 -5 16 6 16 8 -2
21 -22 17 -34 18 -53 6z"/>
<path d="M16545 350 c-3 -6 4 -14 17 -19 13 -5 34 -14 49 -19 17 -7 31 -7 44
0 16 10 13 13 -26 29 -51 21 -75 23 -84 9z"/>
<path d="M16867 306 c-18 -14 -17 -15 3 -21 16 -5 29 -1 43 14 l21 21 -24 0
c-14 0 -33 -7 -43 -14z"/>
<path d="M17357 314 c-11 -11 5 -34 25 -34 14 0 18 5 14 16 -3 9 -6 18 -6 20
0 6 -26 5 -33 -2z"/>
<path d="M16460 283 c1 -25 42 -51 138 -86 l72 -27 0 24 c0 14 -7 26 -17 29
-10 3 -56 19 -102 36 -94 35 -91 34 -91 24z"/>
<path d="M17037 276 c-7 -18 24 -31 35 -14 12 20 9 28 -11 28 -10 0 -21 -6
-24 -14z"/>
<path d="M17210 275 c0 -8 9 -15 20 -15 11 0 20 7 20 15 0 8 -9 15 -20 15 -11
0 -20 -7 -20 -15z"/>
</g>
</svg>
