<svg width="214" height="25" viewBox="0 0 214 25" fill="none" xmlns="http://www.w3.org/2000/svg">
<path d="M0.984 24L5.464 1.6H7.8L3.736 21.952H16.28L15.864 24H0.984ZM25.4977 24.16C23.8977 24.16 22.5004 23.872 21.3057 23.296C20.1324 22.6987 19.2257 21.8667 18.5857 20.8C17.9671 19.7333 17.6577 18.464 17.6577 16.992C17.6577 15.072 18.0631 13.3653 18.8737 11.872C19.6844 10.3787 20.7937 9.20533 22.2017 8.352C23.6097 7.47733 25.1991 7.04 26.9697 7.04C28.4631 7.04 29.7538 7.328 30.8418 7.904C31.9297 8.45867 32.7724 9.26933 33.3698 10.336C33.9884 11.4027 34.2978 12.6827 34.2978 14.176C34.2978 14.5173 34.2764 14.8693 34.2337 15.232C34.1911 15.5733 34.1377 15.904 34.0737 16.224H19.3217L19.6097 14.528H33.0177L32.0898 15.168C32.3031 13.824 32.2071 12.6933 31.8018 11.776C31.3964 10.8587 30.7671 10.1653 29.9137 9.696C29.0817 9.20533 28.0791 8.96 26.9058 8.96C25.5404 8.96 24.3244 9.30133 23.2577 9.984C22.1911 10.6453 21.3591 11.5733 20.7617 12.768C20.1644 13.9413 19.8657 15.3173 19.8657 16.896C19.8657 18.5813 20.3457 19.8827 21.3057 20.8C22.2871 21.696 23.7484 22.144 25.6897 22.144C26.8204 22.144 27.8657 21.9627 28.8258 21.6C29.7858 21.216 30.5751 20.6933 31.1938 20.032L32.2177 21.664C31.4284 22.4533 30.4364 23.072 29.2417 23.52C28.0684 23.9467 26.8204 24.16 25.4977 24.16ZM43.0182 24.16C41.5889 24.16 40.3196 23.872 39.2102 23.296C38.1009 22.72 37.2369 21.8987 36.6182 20.832C35.9996 19.7653 35.6902 18.496 35.6902 17.024C35.6902 15.5947 35.9249 14.272 36.3942 13.056C36.8636 11.84 37.5249 10.784 38.3782 9.888C39.2316 8.97067 40.2342 8.26667 41.3862 7.776C42.5596 7.28533 43.8289 7.04 45.1942 7.04C46.6662 7.04 47.9142 7.30667 48.9382 7.84C49.9622 8.352 50.7516 9.10933 51.3062 10.112C51.8609 11.0933 52.1383 12.288 52.1383 13.696C52.1383 15.7227 51.7649 17.5253 51.0182 19.104C50.2716 20.6827 49.2156 21.92 47.8502 22.816C46.4849 23.712 44.8742 24.16 43.0182 24.16ZM43.4982 22.144C44.9062 22.144 46.1542 21.8133 47.2422 21.152C48.3516 20.4693 49.2156 19.5307 49.8342 18.336C50.4742 17.1413 50.7942 15.7867 50.7942 14.272C50.7942 12.608 50.3036 11.3173 49.3222 10.4C48.3622 9.48267 47.0076 9.024 45.2582 9.024C43.8716 9.024 42.6236 9.36533 41.5142 10.048C40.4049 10.7307 39.5302 11.6693 38.8902 12.864C38.2716 14.0373 37.9622 15.392 37.9622 16.928C37.9622 18.5707 38.4422 19.8507 39.4022 20.768C40.3836 21.6853 41.7489 22.144 43.4982 22.144ZM49.0342 24L49.9942 19.168L50.9543 15.776L51.2743 12.256L52.2983 7.2H54.5702L51.2102 24H49.0342ZM56.2577 24L59.5858 7.2H61.7618L60.8018 12.16L60.5458 11.296C61.2924 9.824 62.2737 8.74667 63.4897 8.064C64.7271 7.38133 66.2631 7.04 68.0978 7.04L67.6818 9.248C67.5751 9.248 67.4684 9.248 67.3618 9.248C67.2764 9.22667 67.1698 9.216 67.0417 9.216C65.2498 9.216 63.7671 9.73867 62.5938 10.784C61.4418 11.808 60.6524 13.3653 60.2257 15.456L58.5298 24H56.2577ZM79.061 7.04C80.5757 7.04 81.813 7.33867 82.773 7.936C83.7543 8.512 84.4263 9.35467 84.789 10.464C85.173 11.5733 85.205 12.896 84.885 14.432L82.965 24H80.693L82.613 14.4C82.9543 12.736 82.773 11.4347 82.069 10.496C81.3863 9.55733 80.1703 9.088 78.421 9.088C76.629 9.088 75.1357 9.57867 73.941 10.56C72.7677 11.5413 71.9783 13.0133 71.573 14.976L69.781 24H67.509L70.837 7.2H73.013L72.053 12.032L71.573 11.2C72.3837 9.74933 73.429 8.69333 74.709 8.032C76.0103 7.37067 77.461 7.04 79.061 7.04ZM95.429 24L99.909 1.6H101.829L113.125 21.152L112.389 21.024L116.261 1.6H118.597L114.117 24H112.197L100.901 4.448L101.637 4.576L97.765 24H95.429ZM133.803 24.192C132.715 24.192 131.638 24.0747 130.571 23.84C129.526 23.584 128.577 23.2427 127.723 22.816C126.87 22.368 126.187 21.8773 125.675 21.344L126.827 19.488C127.339 20.0213 127.969 20.4907 128.715 20.896C129.483 21.3013 130.326 21.6213 131.243 21.856C132.161 22.0693 133.078 22.176 133.995 22.176C135.318 22.176 136.47 22.0053 137.451 21.664C138.454 21.3227 139.233 20.8213 139.787 20.16C140.342 19.4987 140.619 18.6987 140.619 17.76C140.619 17.0133 140.406 16.416 139.979 15.968C139.553 15.4987 138.998 15.1253 138.315 14.848C137.633 14.5493 136.875 14.2827 136.043 14.048C135.211 13.8133 134.379 13.5573 133.547 13.28C132.715 13.0027 131.947 12.6613 131.243 12.256C130.561 11.8507 130.006 11.3173 129.579 10.656C129.174 9.99467 128.971 9.16267 128.971 8.16C128.971 6.752 129.355 5.54667 130.123 4.544C130.891 3.52 131.947 2.74133 133.291 2.208C134.635 1.67467 136.182 1.408 137.931 1.408C139.254 1.408 140.523 1.568 141.739 1.888C142.977 2.208 144.022 2.688 144.875 3.328L143.883 5.248C143.073 4.65067 142.145 4.20267 141.099 3.904C140.054 3.584 138.955 3.424 137.803 3.424C136.502 3.424 135.361 3.60533 134.379 3.968C133.398 4.33067 132.63 4.85333 132.075 5.536C131.542 6.19733 131.275 6.99733 131.275 7.936C131.275 8.68267 131.478 9.29067 131.883 9.76C132.31 10.2293 132.865 10.6133 133.547 10.912C134.251 11.2107 135.019 11.488 135.851 11.744C136.683 11.9787 137.515 12.2347 138.347 12.512C139.179 12.768 139.937 13.0987 140.619 13.504C141.323 13.888 141.889 14.4 142.315 15.04C142.742 15.6587 142.955 16.4587 142.955 17.44C142.955 18.8693 142.561 20.096 141.771 21.12C140.982 22.1227 139.894 22.8907 138.507 23.424C137.142 23.936 135.574 24.192 133.803 24.192ZM156.755 7.04C158.269 7.04 159.507 7.33867 160.467 7.936C161.448 8.512 162.12 9.35467 162.483 10.464C162.867 11.5733 162.899 12.896 162.579 14.432L160.659 24H158.387L160.307 14.4C160.648 12.736 160.467 11.4347 159.763 10.496C159.08 9.55733 157.864 9.088 156.115 9.088C154.323 9.088 152.829 9.57867 151.635 10.56C150.461 11.5413 149.672 13.0133 149.267 14.976L147.475 24H145.203L149.939 0.255999H152.211L149.843 12.032L149.267 11.2C150.077 9.74933 151.123 8.69333 152.403 8.032C153.704 7.37067 155.155 7.04 156.755 7.04ZM172.716 24.16C171.286 24.16 170.017 23.872 168.908 23.296C167.798 22.72 166.934 21.8987 166.316 20.832C165.697 19.7653 165.388 18.496 165.388 17.024C165.388 15.5947 165.622 14.272 166.092 13.056C166.561 11.84 167.222 10.784 168.076 9.888C168.929 8.97067 169.932 8.26667 171.084 7.776C172.257 7.28533 173.526 7.04 174.892 7.04C176.364 7.04 177.612 7.30667 178.636 7.84C179.66 8.352 180.449 9.10933 181.004 10.112C181.558 11.0933 181.836 12.288 181.836 13.696C181.836 15.7227 181.462 17.5253 180.716 19.104C179.969 20.6827 178.913 21.92 177.548 22.816C176.182 23.712 174.572 24.16 172.716 24.16ZM173.196 22.144C174.604 22.144 175.852 21.8133 176.94 21.152C178.049 20.4693 178.913 19.5307 179.532 18.336C180.172 17.1413 180.492 15.7867 180.492 14.272C180.492 12.608 180.001 11.3173 179.02 10.4C178.06 9.48267 176.705 9.024 174.956 9.024C173.569 9.024 172.321 9.36533 171.212 10.048C170.102 10.7307 169.228 11.6693 168.588 12.864C167.969 14.0373 167.66 15.392 167.66 16.928C167.66 18.5707 168.14 19.8507 169.1 20.768C170.081 21.6853 171.446 22.144 173.196 22.144ZM178.732 24L179.692 19.168L180.652 15.776L180.972 12.256L181.996 7.2H184.268L180.908 24H178.732ZM185.955 24L189.283 7.2H191.459L190.499 12.16L190.243 11.296C190.99 9.824 191.971 8.74667 193.187 8.064C194.425 7.38133 195.961 7.04 197.795 7.04L197.379 9.248C197.273 9.248 197.166 9.248 197.059 9.248C196.974 9.22667 196.867 9.216 196.739 9.216C194.947 9.216 193.465 9.73867 192.291 10.784C191.139 11.808 190.35 13.3653 189.923 15.456L188.227 24H185.955ZM204.793 24.16C203.193 24.16 201.795 23.872 200.601 23.296C199.427 22.6987 198.521 21.8667 197.881 20.8C197.262 19.7333 196.953 18.464 196.953 16.992C196.953 15.072 197.358 13.3653 198.169 11.872C198.979 10.3787 200.089 9.20533 201.497 8.352C202.905 7.47733 204.494 7.04 206.265 7.04C207.758 7.04 209.049 7.328 210.137 7.904C211.225 8.45867 212.067 9.26933 212.665 10.336C213.283 11.4027 213.593 12.6827 213.593 14.176C213.593 14.5173 213.571 14.8693 213.529 15.232C213.486 15.5733 213.433 15.904 213.369 16.224H198.617L198.905 14.528H212.313L211.385 15.168C211.598 13.824 211.502 12.6933 211.097 11.776C210.691 10.8587 210.062 10.1653 209.209 9.696C208.377 9.20533 207.374 8.96 206.201 8.96C204.835 8.96 203.619 9.30133 202.553 9.984C201.486 10.6453 200.654 11.5733 200.057 12.768C199.459 13.9413 199.161 15.3173 199.161 16.896C199.161 18.5813 199.641 19.8827 200.601 20.8C201.582 21.696 203.043 22.144 204.985 22.144C206.115 22.144 207.161 21.9627 208.121 21.6C209.081 21.216 209.87 20.6933 210.489 20.032L211.513 21.664C210.723 22.4533 209.731 23.072 208.537 23.52C207.363 23.9467 206.115 24.16 204.793 24.16Z" fill="black"/>
</svg>
