<svg width="24" height="23" viewBox="0 0 24 23" fill="none" xmlns="http://www.w3.org/2000/svg">
<path d="M7.41848 20.9442H4.59293C4.09334 20.9442 3.61421 20.7488 3.26095 20.401C2.90769 20.0531 2.70923 19.5814 2.70923 19.0895V12.5978C2.70923 12.1059 2.90769 11.6342 3.26095 11.2863C3.61421 10.9385 4.09334 10.7431 4.59293 10.7431H7.41848M14.0114 8.88835V5.17885C14.0114 4.44099 13.7137 3.73334 13.1838 3.21159C12.6539 2.68984 11.9353 2.39673 11.1859 2.39673L7.41848 10.7431V20.9442H18.0425C18.4968 20.9493 18.9376 20.7925 19.2838 20.5028C19.63 20.2131 19.8581 19.8099 19.9262 19.3677L21.226 11.0213C21.267 10.7555 21.2488 10.4841 21.1726 10.2259C21.0965 9.96765 20.9642 9.72882 20.7851 9.52593C20.6059 9.32304 20.384 9.16093 20.1349 9.05084C19.8858 8.94075 19.6153 8.8853 19.3423 8.88835H14.0114Z" stroke="current" stroke-width="2" stroke-linecap="round" stroke-linejoin="round"/>
</svg>
